<?xml version="1.0" encoding="iso-8859-1"?>
<!-- Uploaded to: SVG Repo, www.svgrepo.com, Generator: SVG Repo Mixer Tools -->
<svg fill="#000000" height="800px" width="800px" version="1.1" id="Layer_1" xmlns="http://www.w3.org/2000/svg" xmlns:xlink="http://www.w3.org/1999/xlink" 
	 viewBox="0 0 512 512" xml:space="preserve">
<g>
	<g>
		<path d="M473.039,169.631c19.502-38.619,29.569-82.742,28.346-124.241C500.399,11.93,479.811,0.003,460.871,0
			c-0.003,0-0.006,0-0.01,0C410.707,0,330.42,81.131,317.286,181.684c-9.26-2.368-18.958-3.63-28.945-3.63h-66.616
			c-9.318,0-18.382,1.102-27.075,3.173C181.333,80.885,101.216,0,51.137,0C29.398,0,11.518,14.742,10.615,45.39
			c-1.223,41.5,8.843,85.622,28.346,124.241c18.405,36.448,43.574,65.245,73.368,84.155c-4.832,12.806-7.486,26.672-7.486,41.149
			v33.44c-20.264,15.247-33.395,39.489-33.395,66.744c0,46.035,37.452,83.487,83.487,83.487h33.392
			c15.628,20.793,40.318,33.361,66.726,33.395c26.37-0.033,51.056-12.602,66.682-33.395h33.392
			c46.034,0,83.487-37.452,83.487-83.487c0-27.255-13.131-51.497-33.395-66.744v-33.44c0-14.107-2.512-27.639-7.113-40.17
			C428.585,235.878,454.312,206.714,473.039,169.631z M43.994,46.373c0.238-8.085,2.243-10.995,2.852-11.695
			c4.378-5.05,35.948,3.357,70.101,46.895c15.506,19.768,41.115,59.78,45.558,112.632c-13.216,7.8-24.771,18.122-33.998,30.305
			C70.629,186.825,42.164,108.536,43.994,46.373z M255.055,478.606c-10.431-0.014-20.411-3.318-28.698-9.13
			c11.324-5.783,21.118-14.045,28.677-24.074c7.559,10.031,17.353,18.292,28.678,24.075
			C275.429,475.289,265.461,478.593,255.055,478.606z M405.222,395.119c0,27.621-22.471,50.203-50.092,50.203
			c-0.435,0-37.625,0.148-38.047,0.045c-0.567-0.138-1.489-0.525-1.834-0.57c-22.697-2.924-40.298-20.796-43.182-43.186
			l28.081-28.079c6.521-6.521,6.521-17.093,0-23.613c-6.52-6.521-17.093-6.52-23.613,0l-21.501,21.501l-21.501-21.501
			c-6.52-6.52-17.092-6.521-23.613,0c-6.521,6.521-6.521,17.092,0,23.613L238,401.611c-2.734,21.229-18.936,39.756-43.403,43.226
			c-0.567,0.08-1.217,0.433-1.617,0.531c-0.099,0.025-38.043-0.046-38.043-0.046c-27.621,0-50.092-22.583-50.092-50.203
			s22.471-50.092,50.092-50.092c9.221,0,16.697-7.476,16.697-16.697c0-9.221-7.476-16.697-16.697-16.697
			c-5.717,0-11.301,0.58-16.697,1.68v-18.377c0-46.035,37.452-83.487,83.487-83.487h66.616c46.035,0,83.487,37.452,83.487,83.487
			v18.377c-5.398-1.1-10.981-1.68-16.698-1.68c-9.221,0-16.697,7.476-16.697,16.697s7.476,16.697,16.697,16.697
			C382.751,345.027,405.222,367.498,405.222,395.119z M382.193,225.35c-8.9-11.973-20.033-22.189-32.779-30.032
			c4.175-53.4,30.024-93.839,45.638-113.744c32.538-41.481,65.114-52.629,70.102-46.896c0.609,0.699,2.614,3.61,2.852,11.695
			C469.85,109,440.945,187.998,382.193,225.35z"/>
	</g>
</g>
<g>
	<g>
		<circle cx="204.943" cy="294.93" r="16.697"/>
	</g>
</g>
<g>
	<g>
		<circle cx="305.127" cy="294.93" r="16.697"/>
	</g>
</g>
</svg>